<?xml version="1.0" encoding="UTF-8" standalone="no"?><!DOCTYPE svg PUBLIC "-//W3C//DTD SVG 1.1//EN" "http://www.w3.org/Graphics/SVG/1.1/DTD/svg11.dtd"><svg width="100%" height="100%" viewBox="0 0 100 100" version="1.1" xmlns="http://www.w3.org/2000/svg" xmlns:xlink="http://www.w3.org/1999/xlink" xml:space="preserve" style="fill-rule:evenodd;clip-rule:evenodd;stroke-linejoin:round;stroke-miterlimit:1.41421;"><path d="M51.367,38.093c1.079,-0.347 2.266,-0.399 3.441,-0.084c3.252,0.871 5.184,4.219 4.313,7.47c0,0 -2.828,11.88 -4.981,20.922c0,0 -0.435,1.825 -0.851,3.603c-0.138,0.58 0.094,1.185 0.584,1.524c0.491,0.339 1.139,0.343 1.633,0.01c0.602,-0.435 1.258,-0.936 1.96,-1.496c0.113,-0.125 0.251,-0.238 0.411,-0.33c0.677,-0.391 1.484,-0.263 1.8,0.285c0.232,0.401 0.137,0.917 -0.196,1.318c-0.033,0.04 -0.068,0.078 -0.105,0.115c-3.448,3.763 -7.124,7.24 -10.754,8.898c-0.288,0.147 -0.587,0.272 -0.895,0.372l-0.017,0.005c-1.079,0.348 -2.266,0.399 -3.441,0.084c-3.251,-0.871 -5.184,-4.218 -4.313,-7.47c0,0 2.331,-9.791 4.371,-18.36l0.037,-0.154l0.081,-0.34l0.492,-2.067c0,0 0.435,-1.826 0.851,-3.603c0.138,-0.58 -0.094,-1.186 -0.584,-1.525c-0.49,-0.339 -1.138,-0.343 -1.633,-0.009c-0.602,0.435 -1.257,0.936 -1.959,1.495c-0.114,0.126 -0.252,0.238 -0.412,0.33c-0.677,0.391 -1.483,0.263 -1.8,-0.285c-0.254,-0.441 -0.115,-1.02 0.301,-1.433c3.449,-3.763 7.124,-7.239 10.754,-8.898c0.288,-0.147 0.587,-0.271 0.895,-0.372l0.017,-0.005Zm4.153,-18.764c4.008,0 7.262,3.254 7.262,7.262c0,4.008 -3.254,7.262 -7.262,7.262c-4.008,0 -7.262,-3.254 -7.262,-7.262c0,-4.008 3.254,-7.262 7.262,-7.262Z" style="fill:#f8f8f8;"/></svg>