<?xml version="1.0" encoding="UTF-8" standalone="no"?><!DOCTYPE svg PUBLIC "-//W3C//DTD SVG 1.1//EN" "http://www.w3.org/Graphics/SVG/1.1/DTD/svg11.dtd"><svg width="100%" height="100%" viewBox="0 0 100 100" version="1.1" xmlns="http://www.w3.org/2000/svg" xmlns:xlink="http://www.w3.org/1999/xlink" xml:space="preserve" style="fill-rule:evenodd;clip-rule:evenodd;stroke-linejoin:round;stroke-miterlimit:1.41421;"><path d="M22.478,73.966c0,0 2.742,1.961 6.876,1.961c4.134,0 10.516,-4.283 10.516,-9.329c0,-5.047 -4.543,-6.751 -7.191,-5.781c-6.15,2.255 -1.237,8.198 -10.201,13.149Zm26.154,-14.392c0.256,-0.193 0.416,-0.487 0.441,-0.806c0.024,-0.32 -0.089,-0.634 -0.312,-0.865c-1.299,-1.344 -3.723,-3.85 -5.045,-5.217c-0.228,-0.236 -0.549,-0.36 -0.877,-0.339c-0.328,0.021 -0.631,0.186 -0.827,0.449c-1.163,1.566 -3.313,4.46 -4.342,5.844c-0.331,0.446 -0.285,1.067 0.107,1.46c0.966,0.966 2.72,2.72 3.69,3.689c0.395,0.395 1.022,0.439 1.468,0.101c1.364,-1.033 4.186,-3.171 5.697,-4.316Zm0.617,-3.032c1.038,1.038 2.718,1.042 3.761,0.009c3.932,-3.921 13.142,-13.31 19.232,-21.195c7.922,-10.257 6.07,-12.133 6.023,-12.18c-0.047,-0.047 -1.842,-2.151 -12.313,5.871c-8.055,6.171 -17.288,15.436 -21.118,19.381c-1.007,1.046 -0.992,2.705 0.035,3.732c1.31,1.312 3.064,3.066 4.38,4.382Z" style="fill:#f9f9f9;"/></svg>