<?xml version="1.0" encoding="UTF-8" standalone="no"?><!DOCTYPE svg PUBLIC "-//W3C//DTD SVG 1.1//EN" "http://www.w3.org/Graphics/SVG/1.1/DTD/svg11.dtd"><svg width="100%" height="100%" viewBox="0 0 100 100" version="1.1" xmlns="http://www.w3.org/2000/svg" xmlns:xlink="http://www.w3.org/1999/xlink" xml:space="preserve" style="fill-rule:evenodd;clip-rule:evenodd;stroke-linejoin:round;stroke-miterlimit:1.41421;"><path d="M11.866,83.272c0,0 3.781,2.704 9.482,2.704c5.7,0 14.501,-5.906 14.501,-12.865c0,-6.959 -6.265,-9.309 -9.917,-7.971c-8.481,3.109 -1.706,11.304 -14.066,18.132Zm36.065,-19.846c0.353,-0.266 0.574,-0.671 0.608,-1.112c0.034,-0.441 -0.123,-0.875 -0.43,-1.192c-1.792,-1.854 -5.134,-5.31 -6.957,-7.195c-0.315,-0.326 -0.757,-0.496 -1.21,-0.467c-0.452,0.029 -0.869,0.256 -1.139,0.62c-1.604,2.158 -4.57,6.149 -5.988,8.058c-0.457,0.614 -0.394,1.471 0.148,2.013c1.332,1.331 3.751,3.75 5.087,5.087c0.546,0.545 1.41,0.605 2.025,0.139c1.881,-1.425 5.772,-4.372 7.856,-5.951Zm0.851,-4.181c1.431,1.431 3.748,1.437 5.186,0.013c5.422,-5.407 18.122,-18.354 26.521,-29.228c10.924,-14.144 8.37,-16.731 8.305,-16.796c-0.065,-0.065 -2.54,-2.966 -16.979,8.096c-11.108,8.51 -23.839,21.285 -29.122,26.726c-1.389,1.442 -1.367,3.73 0.048,5.146c1.807,1.809 4.226,4.228 6.041,6.043Z" style="fill:#f9f9f9;"/></svg>