<?xml version="1.0" encoding="UTF-8" standalone="no"?><!DOCTYPE svg PUBLIC "-//W3C//DTD SVG 1.1//EN" "http://www.w3.org/Graphics/SVG/1.1/DTD/svg11.dtd"><svg width="100%" height="100%" viewBox="0 0 100 100" version="1.1" xmlns="http://www.w3.org/2000/svg" xmlns:xlink="http://www.w3.org/1999/xlink" xml:space="preserve" style="fill-rule:evenodd;clip-rule:evenodd;stroke-linejoin:round;stroke-miterlimit:1.41421;"><path d="M80.753,71.029c0,-1.852 -0.736,-3.629 -2.045,-4.938c-1.31,-1.31 -3.086,-2.046 -4.938,-2.046c-7.337,0 -18.809,0 -26.146,0c-1.852,0 -3.628,0.736 -4.938,2.046c-1.31,1.309 -2.046,3.086 -2.046,4.938c0,0.001 0,0.002 0,0.002c0,1.852 0.736,3.629 2.046,4.938c1.31,1.31 3.086,2.046 4.938,2.046c7.337,0 18.809,0 26.146,0c1.852,0 3.628,-0.736 4.938,-2.046c1.309,-1.309 2.045,-3.086 2.045,-4.938c0,0 0,-0.001 0,-0.002Zm-54.521,-6.984c3.855,0 6.984,3.13 6.984,6.985c0,3.855 -3.129,6.985 -6.984,6.985c-3.855,0 -6.985,-3.13 -6.985,-6.985c0,-3.855 3.13,-6.985 6.985,-6.985Zm45.305,-14.046c0,-1.852 -0.736,-3.629 -2.046,-4.938c-1.31,-1.31 -3.086,-2.046 -4.938,-2.046c-5.087,0 -11.949,0 -17.036,0c-1.852,0 -3.628,0.736 -4.938,2.046c-1.31,1.309 -2.045,3.086 -2.045,4.938c0,0.001 0,0.001 0,0.002c0,1.852 0.735,3.629 2.045,4.938c1.31,1.31 3.086,2.046 4.938,2.046c5.087,0 11.949,0 17.036,0c1.852,0 3.628,-0.736 4.938,-2.046c1.31,-1.309 2.046,-3.086 2.046,-4.938c0,-0.001 0,-0.001 0,-0.002Zm-45.305,-6.984c3.855,0 6.984,3.13 6.984,6.985c0,3.855 -3.129,6.985 -6.984,6.985c-3.855,0 -6.985,-3.13 -6.985,-6.985c0,-3.855 3.13,-6.985 6.985,-6.985Zm51.596,-14.046c0,-1.852 -0.736,-3.629 -2.045,-4.938c-1.31,-1.31 -3.086,-2.046 -4.939,-2.046c-6.641,0 -16.578,0 -23.22,0c-1.852,0 -3.628,0.736 -4.938,2.046c-1.31,1.309 -2.046,3.086 -2.046,4.938c0,0 0,0.001 0,0.002c0,1.852 0.736,3.629 2.046,4.938c1.31,1.31 3.086,2.046 4.938,2.046c6.642,0 16.579,0 23.22,0c1.853,0 3.629,-0.736 4.939,-2.046c1.309,-1.309 2.045,-3.086 2.045,-4.938c0,-0.001 0,-0.002 0,-0.002Zm-51.596,-6.984c3.855,0 6.984,3.13 6.984,6.985c0,3.855 -3.129,6.985 -6.984,6.985c-3.855,0 -6.985,-3.13 -6.985,-6.985c0,-3.855 3.13,-6.985 6.985,-6.985Z" style="fill:#f8f8f8;"/></svg>