<?xml version="1.0" encoding="UTF-8" standalone="no"?><!DOCTYPE svg PUBLIC "-//W3C//DTD SVG 1.1//EN" "http://www.w3.org/Graphics/SVG/1.1/DTD/svg11.dtd"><svg width="100%" height="100%" viewBox="0 0 100 100" version="1.1" xmlns="http://www.w3.org/2000/svg" xmlns:xlink="http://www.w3.org/1999/xlink" xml:space="preserve" style="fill-rule:evenodd;clip-rule:evenodd;stroke-linejoin:round;stroke-miterlimit:1.41421;"><path d="M50,64.045c3.855,0 6.985,3.13 6.985,6.985c0,3.855 -3.13,6.985 -6.985,6.985c-3.855,0 -6.985,-3.13 -6.985,-6.985c0,-3.855 3.13,-6.985 6.985,-6.985Zm0,-21.03c3.855,0 6.985,3.13 6.985,6.985c0,3.855 -3.13,6.985 -6.985,6.985c-3.855,0 -6.985,-3.13 -6.985,-6.985c0,-3.855 3.13,-6.985 6.985,-6.985Zm0,-21.03c3.855,0 6.985,3.13 6.985,6.985c0,3.855 -3.13,6.985 -6.985,6.985c-3.855,0 -6.985,-3.13 -6.985,-6.985c0,-3.855 3.13,-6.985 6.985,-6.985Z" style="fill:#f8f8f8;"/></svg>